<?xml version="1.0" encoding="utf-8"?>
<svg version="1.1" xmlns:xlink="http://www.w3.org/1999/xlink" width="52px" height="43px" xmlns="http://www.w3.org/2000/svg">
  <g transform="matrix(1 0 0 1 -6 -5 )">
    <path d="M 6 5  L 58 5  L 58 48  L 6 48  L 6 5  " fill-rule="nonzero" fill="#cccccc" stroke="none" />
    <path d="M 9 8  L 55 8  L 55 45  L 9 45  L 9 8  " fill-rule="nonzero" fill="#ffffff" stroke="none" />
    <path d="M 36.265 17.9  C 34.459 17.9  33.04 16.480999999999998  33.04 14.674999999999999  C 33.04 12.869  34.459 11.45  36.265 11.45  C 38.071 11.45  39.49 12.869  39.49 14.674999999999999  C 39.49 16.480999999999998  38.071 17.9  36.265 17.9  " fill-rule="nonzero" fill="#cccccc" stroke="none" />
    <path d="M 10 44  L 10 24.75  L 21 16  L 36.4 26.634615384615387  L 45.2 21.25  L 54 26.634615384615387  L 54 44  L 10 44  " fill-rule="nonzero" fill="#169bd5" stroke="none" />
  </g>
</svg>