<?xml version="1.0" encoding="utf-8"?>
<svg version="1.1" xmlns:xlink="http://www.w3.org/1999/xlink" width="13px" height="13px" viewBox="44 368  13 13" xmlns="http://www.w3.org/2000/svg">
  <path d="M 50.5 368  C 54.14 368  57 370.86  57 374.5  C 57 378.14  54.14 381  50.5 381  C 46.86 381  44 378.14  44 374.5  C 44 370.86  46.86 368  50.5 368  Z " fill-rule="nonzero" fill="#ffffff" stroke="none" />
  <path d="M 50.5 368.5  C 53.86 368.5  56.5 371.14  56.5 374.5  C 56.5 377.86  53.86 380.5  50.5 380.5  C 47.14 380.5  44.5 377.86  44.5 374.5  C 44.5 371.14  47.14 368.5  50.5 368.5  Z " stroke-width="1" stroke="#797979" fill="none" />
  <path d="M 50.5 377.75  C 48.68 377.75  47.25 376.32  47.25 374.5  C 47.25 372.68  48.68 371.25  50.5 371.25  C 52.32 371.25  53.75 372.68  53.75 374.5  C 53.75 376.32  52.32 377.75  50.5 377.75  " fill-rule="nonzero" fill="#797979" stroke="none" />
</svg>